#Comment line ignore any data following # character 
#Hierarchical Translation and Rotation (.htr) file 
[Header]	
#Header keywords are followed by a single value 
FileType HTR		#Single word string
DataType HTRS		#Translation followed by rotation and scale data
FileVersion 1		#integer
NumSegments 84		#integer
NumFrames 2		#integer
DataFrameRate 30		#integer, data frame rate in this file
EulerRotationOrder ZYX
CalibrationUnits mm
RotationUnits Degrees
GlobalAxisofGravity Y
BoneLengthAxis Y
ScaleFactor 1.00
[SegmentNames&Hierarchy]
#CHILD	PARENT
MASTER GLOBAL
root MASTER
chest root
L_mid_tent01 root
R_mid_tent01 root
spine01 root
Bip01_Neck chest
L_humerus chest
R_humerus chest
weapon_bone chest
Bip01_Head Bip01_Neck
eye_left_bone Bip01_Head
eye_right_bone Bip01_Head
L_forearm L_humerus
L_front_hand L_forearm
L_weapon_bone L_forearm
L_front_hand01_01 L_front_hand
L_front_hand02_01 L_front_hand
L_front_hand03_01 L_front_hand
L_front_hand01_02 L_front_hand01_01
L_front_hand02_02 L_front_hand02_01
L_front_hand03_02 L_front_hand03_01
R_forearm R_humerus
R_front_hand R_forearm
R_weapon_bone R_forearm
R_front_hand01_01 R_front_hand
R_front_hand02_01 R_front_hand
R_front_hand03_01 R_front_hand
R_front_hand01_02 R_front_hand01_01
R_front_hand02_02 R_front_hand02_01
R_front_hand03_02 R_front_hand03_01
null_rope01_connect L_mid_tent01
Rope1_Seg01 null_rope01_connect
Rope1_Seg02 Rope1_Seg01
Rope1_Seg03 Rope1_Seg02
Rope1_Seg04 Rope1_Seg03
Rope1_Seg05 Rope1_Seg04
Rope1_Seg06 Rope1_Seg05
Rope1_Seg07 Rope1_Seg06
Rope1_Seg09 Rope1_Seg07
L_mid_hand01 Rope1_Seg09
L_mid_hand02 Rope1_Seg09
L_mid_hand03 Rope1_Seg09
null_rope02_connect R_mid_tent01
Rope2_Seg01 null_rope02_connect
Rope2_Seg02 Rope2_Seg01
Rope2_Seg03 Rope2_Seg02
Rope2_Seg04 Rope2_Seg03
Rope2_Seg05 Rope2_Seg04
Rope2_Seg06 Rope2_Seg05
Rope2_Seg07 Rope2_Seg06
Rope2_Seg09 Rope2_Seg07
R_mid_hand01 Rope2_Seg09
R_mid_hand02 Rope2_Seg09
R_mid_hand03 Rope2_Seg09
spine02 spine01
spine03 spine02
pelvis spine03
null_rope03_connect pelvis
null_rope04_connect pelvis
Rope3_Seg01 null_rope03_connect
Rope3_Seg02 Rope3_Seg01
Rope3_Seg03 Rope3_Seg02
Rope3_Seg04 Rope3_Seg03
Rope3_Seg05 Rope3_Seg04
Rope3_Seg06 Rope3_Seg05
Rope3_Seg07 Rope3_Seg06
Rope3_Seg08 Rope3_Seg07
Rope3_Seg09 Rope3_Seg08
R_rear_hand01 Rope3_Seg09
R_rear_hand02 Rope3_Seg09
R_rear_hand03 Rope3_Seg09
Rope4_Seg01 null_rope04_connect
Rope4_Seg02 Rope4_Seg01
Rope4_Seg03 Rope4_Seg02
Rope4_Seg04 Rope4_Seg03
Rope4_Seg05 Rope4_Seg04
Rope4_Seg06 Rope4_Seg05
Rope4_Seg07 Rope4_Seg06
Rope4_Seg08 Rope4_Seg07
Rope4_Seg09 Rope4_Seg08
L_rear_hand01 Rope4_Seg09
L_rear_hand02 Rope4_Seg09
L_rear_hand03 Rope4_Seg09
[BasePosition]
#SegmentName Tx, Ty, Tz, Rx, Ry, Rz, BoneLength
MASTER 0.000000 0.000000 0.000000 -90.000000 0.000000 0.000000 10.000000 
root 0.000000 0.000000 0.000000 0.000000 0.000000 0.000000 10.000000 
chest 0.000000 0.000000 0.000000 0.000000 0.000000 0.000000 10.000000 
L_mid_tent01 0.000000 0.000000 0.000000 0.000000 0.000000 0.000000 10.000000 
R_mid_tent01 0.000000 0.000000 0.000000 0.000000 0.000000 0.000000 10.000000 
spine01 0.000000 0.000000 0.000000 0.000000 0.000000 0.000000 10.000000 
Bip01_Neck 0.000000 0.000000 0.000000 0.000000 0.000000 0.000000 10.000000 
L_humerus 0.000000 0.000000 0.000000 0.000000 0.000000 0.000000 10.000000 
R_humerus 0.000000 0.000000 0.000000 0.000000 0.000000 0.000000 10.000000 
weapon_bone 0.000000 0.000000 0.000000 0.000000 0.000000 0.000000 10.000000 
Bip01_Head 0.000000 0.000000 0.000000 0.000000 0.000000 0.000000 10.000000 
eye_left_bone 0.000000 0.000000 0.000000 0.000000 0.000000 0.000000 10.000000 
eye_right_bone 0.000000 0.000000 0.000000 0.000000 0.000000 0.000000 10.000000 
L_forearm 0.000000 0.000000 0.000000 0.000000 0.000000 0.000000 10.000000 
L_front_hand 0.000000 0.000000 0.000000 0.000000 0.000000 0.000000 10.000000 
L_weapon_bone 0.000000 0.000000 0.000000 0.000000 0.000000 0.000000 10.000000 
L_front_hand01_01 0.000000 0.000000 0.000000 0.000000 0.000000 0.000000 10.000000 
L_front_hand02_01 0.000000 0.000000 0.000000 0.000000 0.000000 0.000000 10.000000 
L_front_hand03_01 0.000000 0.000000 0.000000 0.000000 0.000000 0.000000 10.000000 
L_front_hand01_02 0.000000 0.000000 0.000000 0.000000 0.000000 0.000000 10.000000 
L_front_hand02_02 0.000000 0.000000 0.000000 0.000000 0.000000 0.000000 10.000000 
L_front_hand03_02 0.000000 0.000000 0.000000 0.000000 0.000000 0.000000 10.000000 
R_forearm 0.000000 0.000000 0.000000 0.000000 0.000000 0.000000 10.000000 
R_front_hand 0.000000 0.000000 0.000000 0.000000 0.000000 0.000000 10.000000 
R_weapon_bone 0.000000 0.000000 0.000000 0.000000 0.000000 0.000000 10.000000 
R_front_hand01_01 0.000000 0.000000 0.000000 0.000000 0.000000 0.000000 10.000000 
R_front_hand02_01 0.000000 0.000000 0.000000 0.000000 0.000000 0.000000 10.000000 
R_front_hand03_01 0.000000 0.000000 0.000000 0.000000 0.000000 0.000000 10.000000 
R_front_hand01_02 0.000000 0.000000 0.000000 0.000000 0.000000 0.000000 10.000000 
R_front_hand02_02 0.000000 0.000000 0.000000 0.000000 0.000000 0.000000 10.000000 
R_front_hand03_02 0.000000 0.000000 0.000000 0.000000 0.000000 0.000000 10.000000 
null_rope01_connect 0.000000 0.000000 0.000000 0.000000 0.000000 0.000000 10.000000 
Rope1_Seg01 0.000000 0.000000 0.000000 0.000000 0.000000 0.000000 10.000000 
Rope1_Seg02 0.000000 0.000000 0.000000 0.000000 0.000000 0.000000 10.000000 
Rope1_Seg03 0.000000 0.000000 0.000000 0.000000 0.000000 0.000000 10.000000 
Rope1_Seg04 0.000000 0.000000 0.000000 0.000000 0.000000 0.000000 10.000000 
Rope1_Seg05 0.000000 0.000000 0.000000 0.000000 0.000000 0.000000 10.000000 
Rope1_Seg06 0.000000 0.000000 0.000000 0.000000 0.000000 0.000000 10.000000 
Rope1_Seg07 0.000000 0.000000 0.000000 0.000000 0.000000 0.000000 10.000000 
Rope1_Seg09 0.000000 0.000000 0.000000 0.000000 0.000000 0.000000 10.000000 
L_mid_hand01 0.000000 0.000000 0.000000 0.000000 0.000000 0.000000 10.000000 
L_mid_hand02 0.000000 0.000000 0.000000 0.000000 0.000000 0.000000 10.000000 
L_mid_hand03 0.000000 0.000000 0.000000 0.000000 0.000000 0.000000 10.000000 
null_rope02_connect 0.000000 0.000000 0.000000 0.000000 0.000000 0.000000 10.000000 
Rope2_Seg01 0.000000 0.000000 0.000000 0.000000 0.000000 0.000000 10.000000 
Rope2_Seg02 0.000000 0.000000 0.000000 0.000000 0.000000 0.000000 10.000000 
Rope2_Seg03 0.000000 0.000000 0.000000 0.000000 0.000000 0.000000 10.000000 
Rope2_Seg04 0.000000 0.000000 0.000000 0.000000 0.000000 0.000000 10.000000 
Rope2_Seg05 0.000000 0.000000 0.000000 0.000000 0.000000 0.000000 10.000000 
Rope2_Seg06 0.000000 0.000000 0.000000 0.000000 0.000000 0.000000 10.000000 
Rope2_Seg07 0.000000 0.000000 0.000000 0.000000 0.000000 0.000000 10.000000 
Rope2_Seg09 0.000000 0.000000 0.000000 0.000000 0.000000 0.000000 10.000000 
R_mid_hand01 0.000000 0.000000 0.000000 0.000000 0.000000 0.000000 10.000000 
R_mid_hand02 0.000000 0.000000 0.000000 0.000000 0.000000 0.000000 10.000000 
R_mid_hand03 0.000000 0.000000 0.000000 0.000000 0.000000 0.000000 10.000000 
spine02 0.000000 0.000000 0.000000 0.000000 0.000000 0.000000 10.000000 
spine03 0.000000 0.000000 0.000000 0.000000 0.000000 0.000000 10.000000 
pelvis 0.000000 0.000000 0.000000 0.000000 0.000000 0.000000 10.000000 
null_rope03_connect 0.000000 0.000000 0.000000 0.000000 0.000000 0.000000 10.000000 
null_rope04_connect 0.000000 0.000000 0.000000 0.000000 0.000000 0.000000 10.000000 
Rope3_Seg01 0.000000 0.000000 0.000000 0.000000 0.000000 0.000000 10.000000 
Rope3_Seg02 0.000000 0.000000 0.000000 0.000000 0.000000 0.000000 10.000000 
Rope3_Seg03 0.000000 0.000000 0.000000 0.000000 0.000000 0.000000 10.000000 
Rope3_Seg04 0.000000 0.000000 0.000000 0.000000 0.000000 0.000000 10.000000 
Rope3_Seg05 0.000000 0.000000 0.000000 0.000000 0.000000 0.000000 10.000000 
Rope3_Seg06 0.000000 0.000000 0.000000 0.000000 0.000000 0.000000 10.000000 
Rope3_Seg07 0.000000 0.000000 0.000000 0.000000 0.000000 0.000000 10.000000 
Rope3_Seg08 0.000000 0.000000 0.000000 0.000000 0.000000 0.000000 10.000000 
Rope3_Seg09 0.000000 0.000000 0.000000 0.000000 0.000000 0.000000 10.000000 
R_rear_hand01 0.000000 0.000000 0.000000 0.000000 0.000000 0.000000 10.000000 
R_rear_hand02 0.000000 0.000000 0.000000 0.000000 0.000000 0.000000 10.000000 
R_rear_hand03 0.000000 0.000000 0.000000 0.000000 0.000000 0.000000 10.000000 
Rope4_Seg01 0.000000 0.000000 0.000000 0.000000 0.000000 0.000000 10.000000 
Rope4_Seg02 0.000000 0.000000 0.000000 0.000000 0.000000 0.000000 10.000000 
Rope4_Seg03 0.000000 0.000000 0.000000 0.000000 0.000000 0.000000 10.000000 
Rope4_Seg04 0.000000 0.000000 0.000000 0.000000 0.000000 0.000000 10.000000 
Rope4_Seg05 0.000000 0.000000 0.000000 0.000000 0.000000 0.000000 10.000000 
Rope4_Seg06 0.000000 0.000000 0.000000 0.000000 0.000000 0.000000 10.000000 
Rope4_Seg07 0.000000 0.000000 0.000000 0.000000 0.000000 0.000000 10.000000 
Rope4_Seg08 0.000000 0.000000 0.000000 0.000000 0.000000 0.000000 10.000000 
Rope4_Seg09 0.000000 0.000000 0.000000 0.000000 0.000000 0.000000 10.000000 
L_rear_hand01 0.000000 0.000000 0.000000 0.000000 0.000000 0.000000 10.000000 
L_rear_hand02 0.000000 0.000000 0.000000 0.000000 0.000000 0.000000 10.000000 
L_rear_hand03 0.000000 0.000000 0.000000 0.000000 0.000000 0.000000 10.000000 
#Beginning of Data. Separated by tabs
#Fr	Tx	Ty	Tz	Rx	Ry	Rz	SF
[MASTER]
22 -0.000696 4692.021973 0.000000 0.001660 0.001660 0.001660 4692.021973
23 -0.000734 4947.800781 0.000000 0.001660 0.001660 0.001660 4947.800781
[root]
22 -133.397644 370.400208 1543.224243 -99.908501 2.706586 -75.809090 1592.649414
23 -140.603561 389.620514 1575.033569 -100.936195 1.366789 -76.285347 1628.589600
[chest]
22 -84.512650 -34.090519 0.000000 7.117965 -2.204446 -178.607300 91.129311
23 -84.512650 -34.090519 0.000000 7.267425 -1.631034 -178.925659 91.129311
[L_mid_tent01]
22 27.299318 22.178587 -249.918625 -24.475897 17.597830 15.678414 252.381577
23 27.299309 22.178638 -249.918655 -23.253004 20.706001 16.585373 252.381622
[R_mid_tent01]
22 23.228794 24.509907 226.238495 80.375114 -27.093143 175.254074 228.744751
23 23.228794 24.509907 226.238495 79.531029 -30.958639 177.058670 228.744751
[spine01]
22 -0.361383 -0.195265 0.000000 0.352722 0.143757 20.017544 0.410763
23 -0.361383 -0.195265 0.000000 0.329558 0.134248 20.143839 0.410763
[Bip01_Neck]
22 165.484543 71.581718 0.000119 175.896118 1.177290 24.871183 180.302734
23 165.484543 71.581718 0.000119 175.896118 1.177290 24.871183 180.302734
[L_humerus]
22 -13.983130 -135.272980 -120.471481 -3.599369 66.000206 85.937927 181.680161
23 -13.983130 -135.272980 -120.471481 -3.706357 66.242729 85.823692 181.680161
[R_humerus]
22 -13.983309 -135.273102 125.287651 82.141884 -29.340622 4.943150 184.909012
23 -13.983309 -135.273102 125.287651 80.739342 -32.783264 6.622914 184.909012
[weapon_bone]
22 235.964890 -300.705902 0.000000 0.000000 -89.951546 -128.212341 382.234833
23 235.964890 -300.705902 0.000000 0.000000 -89.951546 -128.212341 382.234833
[Bip01_Head]
22 217.822876 188.037445 -7.765125 -46.646385 5.844641 -62.456821 287.863129
23 219.628922 191.914246 -8.331836 -46.998684 5.842406 -62.452702 291.783081
[eye_left_bone]
22 -24.626970 125.451866 -64.772606 0.000000 -90.000000 -99.840431 143.318359
23 -24.626970 125.451866 -64.772606 0.000000 -90.000000 -99.840431 143.318359
[eye_right_bone]
22 -24.626970 125.451866 64.327362 0.000000 -89.960434 80.159386 143.117676
23 -24.626970 125.451866 64.327362 0.000000 -89.960434 80.159386 143.117676
[L_forearm]
22 322.776093 0.000000 -0.000119 0.000300 -0.002328 -104.687065 322.776093
23 322.776093 0.000000 -0.000119 0.000306 -0.002327 -104.960922 322.776093
[L_front_hand]
22 241.149185 -0.042021 -3.300071 -178.667953 -1.835447 -27.422342 241.171753
23 241.149185 -0.042021 -3.300071 -178.667953 -1.835447 -27.422342 241.171753
[L_weapon_bone]
22 156.183838 0.000000 0.000000 0.000014 0.000007 0.000001 156.183838
23 156.183838 0.000000 0.000000 0.000014 0.000007 0.000001 156.183838
[L_front_hand01_01]
22 86.095154 20.947098 -0.655860 -0.366594 -0.477154 75.385574 88.609184
23 86.095154 20.947098 -0.655860 -0.366594 -0.477154 75.385574 88.609184
[L_front_hand02_01]
22 86.935165 -11.437475 24.513514 154.403519 -59.888931 -61.371990 91.046425
23 86.935165 -11.437475 24.513514 154.403519 -59.888931 -61.371990 91.046425
[L_front_hand03_01]
22 86.637497 -14.123976 -20.424902 -153.913849 58.118122 -62.702866 90.126129
23 86.637497 -14.123976 -20.424902 -153.913849 58.118122 -62.702866 90.126129
[L_front_hand01_02]
22 71.020905 -0.000179 0.000030 0.000334 -0.002323 -106.379684 71.020905
23 71.020905 -0.000179 0.000030 0.000334 -0.002323 -106.379684 71.020905
[L_front_hand02_02]
22 71.020927 -0.000119 0.000060 0.000334 -0.002323 -106.379684 71.020927
23 71.020927 -0.000119 0.000060 0.000334 -0.002323 -106.379684 71.020927
[L_front_hand03_02]
22 71.020905 -0.000060 0.000060 0.000334 -0.002323 -106.379684 71.020905
23 71.020905 -0.000060 0.000060 0.000334 -0.002323 -106.379684 71.020905
[R_forearm]
22 322.776428 -0.000060 0.000030 -0.003006 -0.211009 -0.151659 322.776428
23 322.776428 -0.000060 0.000030 -0.001385 -0.211026 -1.031986 322.776428
[R_front_hand]
22 238.847015 -0.006795 2.210259 33.833553 0.475528 -2.526496 238.857239
23 238.847015 -0.006795 2.210259 74.477425 1.645855 -6.437503 238.857239
[R_weapon_bone]
22 155.664093 0.002503 -0.000030 0.003487 0.001180 -90.988930 155.664078
23 155.664093 0.002503 -0.000030 0.003487 0.001180 -90.988930 155.664078
[R_front_hand01_01]
22 87.624611 14.231146 22.918642 -154.633499 -59.950619 61.746059 91.683487
23 87.624611 14.231146 22.918642 -154.633499 -59.950634 61.746063 91.683487
[R_front_hand02_01]
22 89.356956 14.367283 -19.491137 154.602676 58.302864 63.744400 92.579636
23 89.356956 14.367283 -19.491137 154.602661 58.302849 63.744381 92.579636
[R_front_hand03_01]
22 87.286232 -22.307278 -0.143439 0.162155 -0.423168 -75.767921 90.091743
23 87.286232 -22.307278 -0.143439 0.162155 -0.423168 -75.767921 90.091743
[R_front_hand01_02]
22 71.020905 0.000060 0.000119 0.002323 -0.000334 106.381714 71.020905
23 71.020905 0.000060 0.000119 0.002323 -0.000334 106.381721 71.020905
[R_front_hand02_02]
22 71.020844 -0.000030 -0.000119 0.002323 -0.000334 106.381714 71.020836
23 71.020844 -0.000030 -0.000119 0.002323 -0.000334 106.381721 71.020836
[R_front_hand03_02]
22 71.020905 0.000000 0.000030 0.002323 -0.000334 106.381714 71.020905
23 71.020905 0.000000 0.000030 0.002323 -0.000334 106.381721 71.020905
[null_rope01_connect]
22 328.732483 0.000000 -0.000238 173.612106 -51.253456 -100.056854 328.732483
23 328.732483 0.000000 -0.000238 179.953598 -50.936337 -106.124390 328.732483
[Rope1_Seg01]
22 0.000000 0.000000 0.000000 68.758125 -9.222760 -133.150482 0.000000
23 0.000000 0.000000 0.000000 68.605728 -10.986116 -133.624649 0.000000
[Rope1_Seg02]
22 139.999863 -0.000179 0.000000 10.684567 -17.424784 2.209377 139.999863
23 139.999863 -0.000179 0.000000 8.901462 -15.929952 2.726419 139.999863
[Rope1_Seg03]
22 139.999924 0.000060 -0.000060 3.859121 -30.018032 11.126005 139.999924
23 139.999924 0.000060 -0.000060 3.625030 -30.356251 11.175996 139.999924
[Rope1_Seg04]
22 139.999924 -0.000060 -0.000119 -2.351246 -22.355124 11.333753 139.999924
23 139.999924 -0.000060 -0.000119 -3.258564 -24.882069 12.149618 139.999924
[Rope1_Seg05]
22 139.999832 0.000119 -0.000060 -15.055028 -33.228107 16.059448 139.999832
23 139.999832 0.000119 -0.000060 -11.174178 -27.079405 15.142225 139.999832
[Rope1_Seg06]
22 139.999954 0.000119 -0.000060 -43.835178 -33.093067 8.183028 139.999954
23 139.999954 0.000119 -0.000060 -40.591110 -30.940798 12.844115 139.999954
[Rope1_Seg07]
22 139.999985 0.000060 0.000000 -22.625320 -9.546127 -5.285146 139.999985
23 139.999985 0.000060 0.000000 -30.741817 -11.385034 -3.587017 139.999985
[Rope1_Seg09]
22 121.602913 0.000119 -0.000089 -89.793175 -1.359789 0.847147 121.602913
23 121.602913 0.000119 -0.000089 -89.793175 -1.359789 0.847147 121.602913
[L_mid_hand01]
22 103.859421 1.038730 8.195221 114.519020 -53.313206 -20.621120 104.187431
23 103.859421 1.038730 8.195221 114.518959 -53.313339 -20.621019 104.187431
[L_mid_hand02]
22 105.572853 -4.139662 -10.864139 -155.067673 38.166626 -52.448818 106.211075
23 105.572853 -4.139662 -10.864139 -155.067673 38.166626 -52.448818 106.211075
[L_mid_hand03]
22 104.641464 17.579376 -3.913581 -10.970130 15.317461 57.626949 106.179977
23 104.641464 17.579376 -3.913581 -10.970130 15.317461 57.626949 106.179977
[null_rope02_connect]
22 328.732849 0.000179 -0.000119 -173.541412 -0.369855 78.248421 328.732849
23 328.732849 0.000179 -0.000119 -172.854980 0.171418 73.814651 328.732849
[Rope2_Seg01]
22 0.000054 0.000377 0.000109 -41.233105 7.718367 75.771080 0.000397
23 0.000057 0.000392 0.000107 -42.161411 5.374676 75.876152 0.000410
[Rope2_Seg02]
22 139.999741 -0.000060 -0.000119 0.376161 2.390841 -0.069635 139.999756
23 139.999741 -0.000060 -0.000119 0.332931 1.841538 -0.007833 139.999756
[Rope2_Seg03]
22 140.000107 0.000030 0.000000 0.399819 2.880726 -0.102072 140.000107
23 140.000107 0.000030 0.000000 0.387084 2.390656 -0.019954 140.000107
[Rope2_Seg04]
22 139.999802 0.000000 -0.000060 0.689421 5.160579 0.210955 139.999802
23 139.999802 0.000000 -0.000060 0.532113 4.063447 -0.113087 139.999802
[Rope2_Seg05]
22 139.999985 -0.000060 0.000119 0.133164 3.326370 -0.583258 139.999985
23 139.999985 -0.000060 0.000119 0.523194 5.771530 -0.165103 139.999985
[Rope2_Seg06]
22 139.999893 -0.000030 -0.000119 -0.462479 -2.239374 -1.310081 139.999893
23 139.999893 -0.000030 -0.000119 -0.049484 -0.636203 0.303626 139.999893
[Rope2_Seg07]
22 139.999893 0.000060 -0.000060 -0.251303 -0.707091 -0.684253 139.999893
23 139.999893 0.000060 -0.000060 -0.073603 -0.636199 0.194960 139.999893
[Rope2_Seg09]
22 121.338966 0.000089 -0.000060 54.100483 0.545947 -1.506398 121.338966
23 121.338966 0.000089 -0.000060 136.879395 0.546403 -1.506368 121.338966
[R_mid_hand01]
22 104.680779 11.144459 -10.335981 -30.020454 38.652878 49.958229 105.778534
23 104.680779 11.144459 -10.335981 -32.074154 37.059322 46.609459 105.778534
[R_mid_hand02]
22 104.070427 2.443552 8.231699 65.242195 -53.678989 20.920412 104.424065
23 104.070427 2.443552 8.231699 66.859070 -50.858833 18.874340 104.424065
[R_mid_hand03]
22 106.028137 -11.221827 -5.996406 -172.708435 14.068862 -59.528896 106.788818
23 106.028137 -11.221827 -5.996406 -171.953873 13.656528 -56.375961 106.788818
[spine02]
22 129.756927 0.001550 0.000119 -0.356958 -15.201083 -3.708491 129.756927
23 129.756927 0.001550 0.000119 -0.365668 -15.141090 -3.657345 129.756927
[spine03]
22 78.566864 0.091673 -5.358228 1.894202 3.800157 17.027525 78.749420
23 78.569801 0.091027 -5.329525 1.887637 3.781528 16.991865 78.750404
[pelvis]
22 169.435242 0.051022 0.000000 -0.059042 -0.340166 8.735004 169.435257
23 169.435242 0.051022 0.000000 -0.058987 -0.326547 9.075672 169.435257
[null_rope03_connect]
22 -1.257226 -2.466202 137.391083 102.550049 -64.454300 -57.509464 137.418976
23 -1.257226 -2.466202 137.391083 105.756844 -64.754211 -59.807789 137.418976
[null_rope04_connect]
22 -1.259640 -2.480268 -137.844437 102.550049 -64.454300 -57.509464 137.872513
23 -1.259640 -2.480268 -137.844437 105.756844 -64.754211 -59.807789 137.872513
[Rope3_Seg01]
22 0.000033 -0.000363 0.000000 -146.267410 -17.013769 -8.114758 0.000364
23 0.000031 -0.000378 0.000000 14.683209 -6.872084 46.785824 0.000380
[Rope3_Seg02]
22 139.999924 -0.000119 0.000060 145.155991 -29.553915 -24.109396 139.999924
23 139.999924 -0.000119 0.000060 -3.524686 4.944523 2.167415 139.999924
[Rope3_Seg03]
22 139.999924 -0.000119 0.000119 6.866790 3.704428 12.875499 139.999924
23 139.999924 -0.000119 0.000119 -2.558295 4.572821 2.350363 139.999924
[Rope3_Seg04]
22 139.999924 0.000119 0.000000 6.829837 0.223294 11.100555 139.999924
23 139.999924 0.000119 0.000000 -3.754557 7.222876 2.858890 139.999924
[Rope3_Seg05]
22 139.999924 -0.000238 0.000060 4.774705 0.326544 10.300278 139.999924
23 139.999924 -0.000238 0.000060 -0.817819 3.194954 2.378684 139.999924
[Rope3_Seg06]
22 139.999893 -0.000119 -0.000060 1.987508 1.096475 5.686876 139.999893
23 139.999893 -0.000119 -0.000060 3.120234 -4.077108 0.405453 139.999893
[Rope3_Seg07]
22 139.999771 0.000060 -0.000119 1.395592 0.932263 4.044984 139.999771
23 139.999771 0.000060 -0.000119 4.369092 -5.623729 0.019872 139.999771
[Rope3_Seg08]
22 139.999985 -0.000060 0.000000 1.015708 0.656620 2.569688 139.999985
23 139.999985 -0.000060 0.000000 2.228540 -2.036518 0.511212 139.999985
[Rope3_Seg09]
22 90.185997 -0.000179 -0.000060 84.137192 -1.360003 -0.845525 90.185997
23 90.185997 -0.000179 -0.000060 89.795624 -1.358474 -0.848592 90.185997
[R_rear_hand01]
22 103.366196 -6.073594 -10.757982 -156.049316 6.070419 -2.795869 104.101845
23 103.366196 -6.073594 -10.757982 -156.049316 6.070419 -2.795869 104.101845
[R_rear_hand02]
22 100.509819 12.039542 -7.992327 -38.708435 1.958051 5.461186 101.543350
23 100.509819 12.039542 -7.992327 -38.708435 1.958051 5.461186 101.543350
[R_rear_hand03]
22 101.539970 5.215704 5.435467 84.307632 -2.361033 4.099037 101.819031
23 101.539970 5.215704 5.435467 84.307625 -2.361033 4.099038 101.819031
[Rope4_Seg01]
22 0.000074 -0.000643 0.000000 44.950054 -13.999890 -93.484947 0.000648
23 0.000073 -0.000679 0.000000 45.632969 -18.836750 -96.416451 0.000683
[Rope4_Seg02]
22 139.999985 0.000060 0.000119 -0.960234 -1.936759 9.039865 139.999985
23 139.999985 0.000060 0.000119 -0.067187 4.589771 9.662261 139.999985
[Rope4_Seg03]
22 139.999924 0.000000 -0.000238 -3.078294 -3.823128 16.906296 139.999924
23 139.999924 0.000000 -0.000238 -3.197822 11.696770 23.626326 139.999924
[Rope4_Seg04]
22 139.999985 0.000000 0.000119 -7.293844 -5.596429 25.573257 139.999985
23 139.999985 0.000000 0.000119 -21.923435 19.849451 34.800877 139.999985
[Rope4_Seg05]
22 139.999802 -0.000060 -0.000119 -9.587991 -9.407147 24.423920 139.999802
23 139.999802 -0.000060 -0.000119 -48.579067 -16.728722 33.265617 139.999802
[Rope4_Seg06]
22 139.999924 0.000000 0.000060 -12.877210 -19.156469 29.698343 139.999924
23 139.999924 0.000000 0.000060 -8.399076 -29.920788 2.501110 139.999924
[Rope4_Seg07]
22 139.999802 0.000000 0.000000 -3.911364 -14.353364 15.907492 139.999802
23 139.999802 0.000000 0.000000 -0.894143 -9.286538 0.704447 139.999802
[Rope4_Seg08]
22 139.999924 0.000000 0.000119 -1.872967 -5.263235 5.516666 139.999924
23 139.999924 0.000000 0.000119 -1.682401 -4.253599 0.301707 139.999924
[Rope4_Seg09]
22 90.185791 0.000060 0.000060 -135.617828 2.228885 0.850567 90.185791
23 90.185791 0.000060 0.000060 -135.617828 2.228885 0.850567 90.185791
[L_rear_hand01]
22 101.696655 -8.392275 -7.654577 -19.915020 -33.950905 119.950104 102.329041
23 101.696655 -8.392275 -7.654577 -19.915020 -33.950905 119.950104 102.329041
[L_rear_hand02]
22 102.726799 -1.568258 5.773216 77.862221 61.878510 165.399200 102.900848
23 102.726799 -1.568258 5.773216 77.862221 61.878510 165.399200 102.900848
[L_rear_hand03]
22 104.552910 9.721220 -10.420293 -173.099182 -23.740307 -117.327896 105.519653
23 104.552910 9.721220 -10.420293 -173.099182 -23.740307 -117.327896 105.519653
